<?xml version="1.0" encoding="UTF-8"?>
<svg id="Layer_2" fill="#fff" data-name="Layer 2" xmlns="http://www.w3.org/2000/svg" viewBox="0 0 435 300">
  <g id="short_logo" data-name="short logo">
    <g>
      <path d="M70,0C42.66,27.34,27.34,42.66,0,70v230H70v-70h70v70h70V0H70Zm70,160H70V93.33c9.11-9.11,14.22-14.22,23.33-23.33h46.67v90Zm42.5,115.5h-15V24.5h15v251Z"/>
      <path d="M225,0V300s70,0,70,0v-89.99h140s0-140.01,0-140.01C407.66,42.66,392.34,27.34,365,0H225Zm140,140h-70V70h46.67c9.11,9.11,14.22,14.22,23.33,23.33v46.67Zm-112.5-46.79h15v74.29s125,0,125,0V93.21h15v74.29s0,0,0,0v15h-15s-125,0-125,0v90h-15v-90s0-15,0-15V93.21Z"/>
    </g>
  </g>
</svg>